# xmcd
#
# Track frame offsets:
#	150
#	16648
#	30489
#	41874
#	60244
#	77667
#	94653
#	109966
#	130451
#	146640
#	158845
#	172985
#	190824
#	209776
#	225008
#	240324
#	258947
#	269164
#	280028
#	295341
#
# Disc length: 4124
#
# Revision: 1
# Processed by: cddbd v1.5.1PL0 Copyright (c) Steve Scherf et al.
# Submitted via: OrangeCD 5.2
# Normalized: r0:DSETVAR1
#
DISCID=12101a14
DTITLE=Various Artist - Line Dance Hits From The Jukebox Vol.3
DYEAR=2002
DGENRE=Country
TTITLE0=Liz Abella - A Place In My heart
TTITLE1=Olsen Brothers - Do You Wanna Dance
TTITLE2=Nikki Danielssons - Den enda sanna mannen (The Only True Man)
TTITLE3=The Dean Brothers - Mony Mony
TTITLE4=Easy Rider - Union Mare, Confederal Grey
TTITLE5=K.T. Oslin - Live Close By, Visit Often
TTITLE6=The Kentucky Headhunters - Jessico
TTITLE7=Larry Joe Taylor - Island Time
TTITLE8=Ashley Jay - Standin' Still
TTITLE9=Ronnie Beard - Hillbillyville
TTITLE10=Carter and Carter - You Were There
TTITLE11=Paul Overstreet - When You Say Nothing At All
TTITLE12=Keisa Brown - Some Bridges Need Burning
TTITLE13=Tania Kernaghan - Dunroamin' Station
TTITLE14=Billy Curtis - Free
TTITLE15=Rick Tippe - Captured (By Love's Melody)
TTITLE16=Gail Davies - I'll Be There
TTITLE17=Damon Gray - Terrible Two's
TTITLE18=Jody Jenkins - The Promise
TTITLE19=Nadine Somers - Temptation
EXTD=
EXTT0=
EXTT1=
EXTT2=
EXTT3=
EXTT4=
EXTT5=
EXTT6=
EXTT7=
EXTT8=
EXTT9=
EXTT10=
EXTT11=
EXTT12=
EXTT13=
EXTT14=
EXTT15=
EXTT16=
EXTT17=
EXTT18=
EXTT19=
PLAYORDER=
